HIERARCHY
ROOT Hips
{
	OFFSET 0.000000 0.000000 0.000000
	CHANNELS 6 Xposition Yposition Zposition Xrotation Yrotation Zrotation
	JOINT LeftUpLeg_virtual
	{
		OFFSET 0.000000 0.000000 0.000000
		CHANNELS 3 Xrotation Yrotation Zrotation
		JOINT LeftUpLeg
		{
			OFFSET 11.394100 -6.187798 -0.413800
			CHANNELS 3 Xrotation Yrotation Zrotation
			JOINT LeftLeg
			{
				OFFSET 0.430247 -32.302673 3.732800
				CHANNELS 3 Xrotation Yrotation Zrotation
				JOINT LeftFoot
				{
					OFFSET -0.430247 -48.264931 -6.423300
					CHANNELS 3 Xrotation Yrotation Zrotation
					JOINT LeftToeBase
					{
						OFFSET 4.230900 -16.068199 23.438400
						CHANNELS 3 Xrotation Yrotation Zrotation
						JOINT LeftToe_End
						{
							OFFSET 4.510700 0.695400 19.974600
							CHANNELS 3 Xrotation Yrotation Zrotation
							End Site
							{
								OFFSET 0 0 0
							}
						}
					}
				}
			}
		}
	}
	JOINT RightUpLeg_virtual
	{
		OFFSET 0.000000 0.000000 0.000000
		CHANNELS 3 Xrotation Yrotation Zrotation
		JOINT RightUpLeg
		{
			OFFSET -11.333700 -6.187798 -0.413800
			CHANNELS 3 Xrotation Yrotation Zrotation
			JOINT RightLeg
			{
				OFFSET -0.430392 -32.302628 3.733000
				CHANNELS 3 Xrotation Yrotation Zrotation
				JOINT RightFoot
				{
					OFFSET 0.430392 -48.264973 -6.423500
					CHANNELS 3 Xrotation Yrotation Zrotation
					JOINT RightToeBase
					{
						OFFSET -4.230900 -16.068199 23.438400
						CHANNELS 3 Xrotation Yrotation Zrotation
						JOINT RightToe_End
						{
							OFFSET -4.510700 0.695400 19.974600
							CHANNELS 3 Xrotation Yrotation Zrotation
							End Site
							{
								OFFSET 0 0 0
							}
						}
					}
				}
			}
		}
	}
	JOINT Spine_virtual
	{
		OFFSET 0.000000 0.000000 0.000000
		CHANNELS 3 Xrotation Yrotation Zrotation
		JOINT Spine
		{
			OFFSET -0.002400 12.777504 0.315300
			CHANNELS 3 Xrotation Yrotation Zrotation
			JOINT Spine1
			{
				OFFSET -0.002067 5.816869 0.032633
				CHANNELS 3 Xrotation Yrotation Zrotation
				JOINT Spine1_split
				{
					OFFSET -0.002067 5.816869 0.032633
					CHANNELS 3 Xrotation Yrotation Zrotation
					JOINT Spine2
					{
						OFFSET -0.002067 5.816869 0.032633
						CHANNELS 3 Xrotation Yrotation Zrotation
						JOINT Neck_virtual
						{
							OFFSET 0.000000 0.000000 0.000000
							CHANNELS 3 Xrotation Yrotation Zrotation
							JOINT Neck
							{
								OFFSET -0.003700 21.199493 -0.826900
								CHANNELS 3 Xrotation Yrotation Zrotation
								JOINT Head
								{
									OFFSET 0.000000 20.442200 4.834800
									CHANNELS 3 Xrotation Yrotation Zrotation
									JOINT HeadTop_End
									{
										OFFSET 0.000000 34.668396 4.968400
										CHANNELS 3 Xrotation Yrotation Zrotation
										End Site
										{
											OFFSET 0 0 0
										}
									}
								}
							}
						}
						JOINT LeftShoulder_virtual
						{
							OFFSET 0.000000 0.000000 0.000000
							CHANNELS 3 Xrotation Yrotation Zrotation
							JOINT LeftShoulder
							{
								OFFSET 3.288150 8.794197 -1.372250
								CHANNELS 3 Xrotation Yrotation Zrotation
								JOINT LeftShoulder_split
								{
									OFFSET 3.288150 8.794197 -1.372250
									CHANNELS 3 Xrotation Yrotation Zrotation
									JOINT LeftArm
									{
										OFFSET 11.953299 -2.279007 -0.146200
										CHANNELS 3 Xrotation Yrotation Zrotation
										JOINT LeftForeArm
										{
											OFFSET 18.448900 0.000000 0.000000
											CHANNELS 3 Xrotation Yrotation Zrotation
											JOINT LeftHand
											{
												OFFSET 29.527798 0.000000 0.000000
												CHANNELS 3 Xrotation Yrotation Zrotation
												End Site
												{
													OFFSET 0 0 0
												}
											}
										}
									}
								}
							}
						}
						JOINT RightShoulder_virtual
						{
							OFFSET 0.000000 0.000000 0.000000
							CHANNELS 3 Xrotation Yrotation Zrotation
							JOINT RightShoulder
							{
								OFFSET -3.249400 8.794197 -1.372250
								CHANNELS 3 Xrotation Yrotation Zrotation
								JOINT RightShoulder_split
								{
									OFFSET -3.249400 8.794197 -1.372250
									CHANNELS 3 Xrotation Yrotation Zrotation
									JOINT RightArm
									{
										OFFSET -11.953299 -2.279007 -0.146200
										CHANNELS 3 Xrotation Yrotation Zrotation
										JOINT RightForeArm
										{
											OFFSET -18.448900 0.000000 0.000000
											CHANNELS 3 Xrotation Yrotation Zrotation
											JOINT RightHand
											{
												OFFSET -29.527802 0.000000 0.000000
												CHANNELS 3 Xrotation Yrotation Zrotation
												End Site
												{
													OFFSET 0 0 0
												}
											}
										}
									}
								}
							}
						}
					}
				}
			}
		}
	}
}
MOTION
Frames: 5
Frame Time: 0.03333333
0.138063 100.851059 -2.123356 0.000000 0.000000 0.000000 -3.088622 4.188806 -1.891094 -13.107498 9.561015 12.915467 18.450578 -4.363733 0.619360 -3.395774 -0.001870 -3.879115 0.222276 0.109499 -0.990386 0.000000 0.000000 0.000000 -3.397988 5.192066 -1.707511 -17.541498 -4.400001 -2.244918 15.133606 1.165709 -2.468278 6.263269 0.764948 1.253730 -0.059520 0.565679 2.534038 0.000000 0.000000 0.000000 -3.505603 6.739441 -1.667661 11.375748 -0.397464 1.365564 2.616994 0.034689 -0.307328 0.314876 -1.699317 0.916249 0.000000 0.000000 0.000000 -4.511245 -0.149386 0.279361 0.099243 -0.983054 0.567979 7.282970 -2.979794 -1.706008 0.000000 0.000000 0.000000 -4.748245 -0.454467 0.293652 0.195195 -3.996853 -7.931666 -1.135133 -0.830669 0.630812 6.608304 -1.179559 -73.480084 5.184907 -8.182565 3.428601 0.000000 0.000000 0.000000 -5.481590 -0.653852 0.392779 0.962545 8.400579 6.000952 -3.975870 -0.850369 -0.033142 4.845266 12.239367 75.825113 16.459878 18.278303 -3.894502 0.000000 0.000000 0.000000 
0.358294 100.955261 -2.201872 0.000000 0.000000 0.000000 -2.951874 4.163877 -1.848492 -12.913536 9.424908 12.721265 18.392241 -4.136658 0.591935 -3.632272 0.126457 -3.860153 0.374931 0.089164 -0.991491 0.000000 0.000000 0.000000 -3.169051 5.090840 -1.737497 -17.671617 -4.621778 -2.412213 14.642647 1.156841 -2.512421 6.189139 0.961145 1.058471 -0.125151 0.580910 2.409064 0.000000 0.000000 0.000000 -3.276299 6.421097 -1.698050 11.237113 -0.343991 1.386769 2.609463 0.047091 -0.326648 0.343075 -1.862074 0.761391 0.000000 0.000000 0.000000 -4.412545 -0.124408 0.271465 0.112003 -0.918309 0.540517 7.319007 -3.125550 -1.544957 0.000000 0.000000 0.000000 -4.744436 -0.436625 0.245700 0.251441 -3.940893 -7.826524 -1.201042 -0.798801 0.704972 6.484940 -1.313099 -73.502971 5.124876 -8.365097 3.396688 0.000000 0.000000 0.000000 -5.490655 -0.628372 0.413114 0.935028 8.075058 5.840540 -3.994483 -0.802275 -0.051056 4.752768 12.651631 75.726587 16.535494 18.598030 -4.112132 0.000000 0.000000 0.000000 
0.678587 100.980598 -2.139000 0.000000 0.000000 0.000000 -2.946038 4.192900 -1.864564 -12.689921 9.304318 12.497797 18.482215 -3.848150 0.519813 -4.035658 0.298041 -3.783547 0.624497 0.065939 -0.954268 0.000000 0.000000 0.000000 -2.984659 4.953921 -1.867531 -17.326976 -4.899845 -2.626695 13.903909 1.173517 -2.576972 5.716742 1.405192 0.799406 -0.344176 0.629647 1.952526 0.000000 0.000000 0.000000 -3.090027 6.042341 -1.696213 11.073760 -0.212614 1.408128 2.623280 0.088509 -0.360804 0.359468 -1.866163 0.635781 0.000000 0.000000 0.000000 -4.265593 -0.078591 0.253788 0.060248 -0.826549 0.442453 7.146641 -3.245978 -1.318096 0.000000 0.000000 0.000000 -4.681973 -0.393966 0.195549 0.327094 -3.885868 -7.617971 -1.325959 -0.890453 0.760736 6.324233 -1.619897 -73.401290 5.162193 -8.507495 3.335176 0.000000 0.000000 0.000000 -5.405492 -0.580600 0.404605 0.949908 7.759566 5.608214 -3.976958 -0.879239 -0.029693 4.621780 13.214668 75.614224 16.671201 19.191442 -4.729926 0.000000 0.000000 0.000000 
1.080348 100.895592 -1.883484 0.000000 0.000000 0.000000 -3.046201 4.223213 -1.920322 -12.439164 9.244787 12.257620 18.646311 -3.508115 0.402537 -4.493415 0.449569 -3.668891 0.725764 0.035164 -0.840619 0.000000 0.000000 0.000000 -2.881375 4.803684 -1.998293 -16.649858 -5.265314 -2.949848 13.259077 1.195190 -2.567823 4.994836 1.994326 0.475596 -0.531969 0.713746 1.286841 0.000000 0.000000 0.000000 -3.035926 5.688860 -1.665263 10.904945 -0.057001 1.427943 2.655858 0.147575 -0.384731 0.351346 -1.744234 0.574690 0.000000 0.000000 0.000000 -4.108939 -0.027676 0.251365 -0.026695 -0.730395 0.295036 6.800013 -3.362282 -1.034814 0.000000 0.000000 0.000000 -4.570962 -0.338477 0.163854 0.420791 -3.829470 -7.358669 -1.533546 -1.020917 0.773147 6.192336 -2.086425 -73.288469 5.296316 -8.514343 3.241911 0.000000 0.000000 0.000000 -5.238266 -0.521819 0.387493 1.009178 7.476275 5.330951 -3.975483 -1.023619 -0.058808 4.443185 13.719023 75.535882 16.802805 19.905675 -5.640743 0.000000 0.000000 0.000000 
1.536541 100.755806 -1.446478 0.000000 0.000000 0.000000 -3.201479 4.169839 -1.945292 -12.082862 9.198783 11.987493 18.836658 -3.089749 0.258956 -5.017637 0.564116 -3.439266 0.549766 0.004917 -0.620201 0.000000 0.000000 0.000000 -2.873024 4.595273 -2.071066 -15.784448 -5.686956 -3.408682 12.778288 1.285955 -2.438908 4.180476 2.621621 0.300329 -0.720350 0.791922 0.564107 0.000000 0.000000 0.000000 -3.096848 5.417429 -1.642372 10.743262 0.088127 1.436097 2.698795 0.208934 -0.373229 0.338278 -1.527321 0.564163 0.000000 0.000000 0.000000 -3.976972 0.013921 0.286154 -0.118352 -0.636072 0.148219 6.355176 -3.473363 -0.722874 0.000000 0.000000 0.000000 -4.435463 -0.283110 0.171260 0.517633 -3.780450 -7.123690 -1.768873 -1.214099 0.725238 6.116299 -2.670475 -73.241806 5.512524 -8.401514 3.132763 0.000000 0.000000 0.000000 -5.028437 -0.466480 0.387459 1.118811 7.250274 5.054615 -3.957938 -1.105430 -0.104499 4.158681 14.030627 75.540485 16.824892 20.569263 -6.693366 0.000000 0.000000 0.000000 
